Coordinates
version=1
nRows=27
nColumns=38
inDegrees=no

Units are S.I. units (second, meters, Newtons, ...)
If the header above contains a line with 'inDegrees', this indicates whether rotational values are in degrees (yes) or radians (no).

endheader
time	pelvis_tilt	pelvis_list	pelvis_rotation	pelvis_tx	pelvis_ty	pelvis_tz	hip_flexion_r	hip_adduction_r	hip_rotation_r	knee_angle_r	ankle_angle_r	subtalar_angle_r	mtp_angle_r	hip_flexion_l	hip_adduction_l	hip_rotation_l	knee_angle_l	ankle_angle_l	subtalar_angle_l	mtp_angle_l	lumbar_extension	lumbar_bending	lumbar_rotation	arm_flex_r	arm_add_r	arm_rot_r	elbow_flex_r	pro_sup_r	wrist_flex_r	wrist_dev_r	arm_flex_l	arm_add_l	arm_rot_l	elbow_flex_l	pro_sup_l	wrist_flex_l	wrist_dev_l
0.48	0.327651	1.49346	-2.0022	0.910854	0.521591	1.05668	-0.157009	0.0531531	-0.0106174	0.245027	-0.0521185	0	0	0.291043	-0.00660507	-0.290023	0.515702	-0.127277	0	0	-0.193298	0.0554696	0.0209796	-0.129406	-0.19629	-0.207327	0.360417	0.379332	0	0	-0.08947	-0.393676	1.43383	0.499553	0.298465	0	0
0.49	0.350927	1.49464	-2.02751	0.910733	0.511069	1.05523	-0.166796	0.0497348	-0.0119397	0.245132	-0.0460207	0	0	0.29467	-0.00297138	-0.301638	0.4719	-0.134453	0	0	-0.191547	0.0531336	0.0200136	-0.126673	-0.196927	-0.205665	0.359562	0.378216	0	0	-0.101535	-0.385353	1.43221	0.493892	0.294417	0	0
0.5	0.377973	1.49545	-2.05632	0.910689	0.500486	1.05369	-0.176249	0.0457502	-0.0147892	0.24647	-0.0395272	0	0	0.298691	0.00209436	-0.311027	0.43358	-0.140922	0	0	-0.189858	0.0503163	0.0190615	-0.124127	-0.197475	-0.203815	0.358552	0.376805	0	0	-0.112877	-0.377605	1.43103	0.488756	0.288799	0	0
0.51	0.403355	1.49562	-2.08363	0.910661	0.489799	1.05211	-0.185945	0.0414145	-0.0188056	0.248607	-0.0334299	0	0	0.302744	0.0074509	-0.320571	0.402011	-0.144256	0	0	-0.188693	0.0471403	0.0187045	-0.121928	-0.197741	-0.202784	0.357527	0.374162	0	0	-0.123242	-0.370845	1.43029	0.484997	0.28159	0	0
0.52	0.422447	1.4945	-2.105	0.9106	0.479033	1.05058	-0.196692	0.0367474	-0.0235055	0.251256	-0.0286401	0	0	0.305195	0.0133517	-0.329711	0.375236	-0.144116	0	0	-0.188831	0.0434697	0.0194649	-0.120138	-0.197731	-0.20224	0.356756	0.371251	0	0	-0.132323	-0.364212	1.43306	0.480127	0.277952	0	0
0.53	0.438079	1.49189	-2.12344	0.910513	0.468185	1.04918	-0.208426	0.0312605	-0.0284529	0.2548	-0.0243254	0	0	0.306047	0.0190676	-0.338015	0.355139	-0.14183	0	0	-0.190282	0.0391061	0.0212333	-0.118695	-0.197754	-0.20138	0.355947	0.369117	0	0	-0.14041	-0.357913	1.43732	0.474716	0.276914	0	0
0.54	0.447012	1.48808	-2.13579	0.910371	0.457265	1.04789	-0.220787	0.025333	-0.03325	0.259931	-0.019493	0	0	0.304879	0.0250656	-0.34452	0.338322	-0.138908	0	0	-0.193197	0.0342069	0.0238948	-0.11741	-0.197906	-0.199665	0.355131	0.366915	0	0	-0.147244	-0.352613	1.44169	0.470019	0.273988	0	0
0.55	0.448218	1.48357	-2.14096	0.91016	0.446291	1.04666	-0.233048	0.0193772	-0.038936	0.267591	-0.0143095	0	0	0.302116	0.0308174	-0.350261	0.324514	-0.136467	0	0	-0.19707	0.0292208	0.0269918	-0.115805	-0.197978	-0.198633	0.354224	0.362847	0	0	-0.153422	-0.348095	1.44629	0.465733	0.269229	0	0
0.56	0.447752	1.48008	-2.14493	0.909928	0.435254	1.04533	-0.243272	0.0138858	-0.0460397	0.277463	-0.0104592	0	0	0.300149	0.0354122	-0.35646	0.315492	-0.135327	0	0	-0.199527	0.0246753	0.0312438	-0.11476	-0.197949	-0.198747	0.352999	0.3585	0	0	-0.159797	-0.343685	1.45075	0.460296	0.266606	0	0
0.57	0.446263	1.47696	-2.14825	0.909643	0.424123	1.044	-0.252165	0.00841684	-0.053497	0.288744	-0.00638604	0	0	0.297675	0.0393483	-0.362271	0.309894	-0.135607	0	0	-0.201193	0.0203444	0.0367866	-0.114536	-0.197966	-0.19889	0.351537	0.353146	0	0	-0.165419	-0.339663	1.45568	0.454275	0.261988	0	0
0.58	0.445383	1.4745	-2.1521	0.909348	0.41287	1.04262	-0.259493	0.00318369	-0.0610462	0.302114	-0.00291957	0	0	0.29536	0.0426278	-0.367111	0.308848	-0.136496	0	0	-0.201784	0.01623	0.0423723	-0.115202	-0.198078	-0.198557	0.350442	0.348791	0	0	-0.170791	-0.335954	1.46074	0.448213	0.257904	0	0
0.59	0.447543	1.47247	-2.15922	0.909036	0.40142	1.04124	-0.265373	-0.00227293	-0.0688301	0.317621	0.000955125	0	0	0.293028	0.0454836	-0.371981	0.312133	-0.138318	0	0	-0.201102	0.0121643	0.0486136	-0.117072	-0.198416	-0.197627	0.349641	0.343115	0	0	-0.175663	-0.333171	1.46654	0.442789	0.25008	0	0
0.6	0.448529	1.47053	-2.16513	0.908826	0.389745	1.03993	-0.270727	-0.00809655	-0.0760341	0.334548	0.00355789	0	0	0.290208	0.0479409	-0.376474	0.319703	-0.140544	0	0	-0.199549	0.00837305	0.0550526	-0.119918	-0.199018	-0.196192	0.348889	0.335705	0	0	-0.180116	-0.331879	1.47282	0.439475	0.237633	0	0
0.61	0.450381	1.46834	-2.17259	0.908686	0.377805	1.03872	-0.275502	-0.0150396	-0.080863	0.353704	0.00434101	0	0	0.286126	0.0505334	-0.380908	0.329926	-0.142967	0	0	-0.197283	0.00449425	0.061985	-0.123543	-0.200007	-0.193487	0.348014	0.329207	0	0	-0.1845	-0.330153	1.48122	0.435058	0.225987	0	0
0.62	0.45509	1.46563	-2.18364	0.908598	0.365605	1.03758	-0.279587	-0.0233695	-0.0831159	0.375382	0.00359985	0	0	0.280442	0.0538883	-0.384959	0.341726	-0.145476	0	0	-0.194424	0.00023599	0.0694988	-0.127971	-0.201181	-0.190762	0.347275	0.322474	0	0	-0.188779	-0.328683	1.49111	0.430495	0.215404	0	0
0.63	0.464013	1.46277	-2.19807	0.908569	0.353042	1.03645	-0.282968	-0.0322912	-0.0849705	0.398585	0.00142118	0	0	0.273402	0.058547	-0.386326	0.354499	-0.147528	0	0	-0.190341	-0.00437496	0.0762911	-0.133836	-0.202272	-0.187628	0.346908	0.316213	0	0	-0.193022	-0.329491	1.49976	0.428869	0.202819	0	0
0.64	0.473949	1.45986	-2.21306	0.908551	0.340068	1.03536	-0.285783	-0.0414756	-0.0856626	0.422803	-0.00284581	0	0	0.264498	0.0641901	-0.385712	0.366684	-0.149328	0	0	-0.184669	-0.0089995	0.0829974	-0.14145	-0.203574	-0.182422	0.346688	0.3099	0	0	-0.196838	-0.331917	1.51192	0.429088	0.187548	0	0
0.65	0.485677	1.45675	-2.22951	0.908583	0.326776	1.03439	-0.287709	-0.0511764	-0.083855	0.449143	-0.00920115	0	0	0.254232	0.0708528	-0.384411	0.376171	-0.152884	0	0	-0.178001	-0.0137283	0.0891194	-0.149646	-0.204646	-0.178095	0.345842	0.303094	0	0	-0.200409	-0.334593	1.5253	0.429493	0.172479	0	0
0.66	0.507572	1.45279	-2.25517	0.908733	0.31336	1.03368	-0.288311	-0.0623056	-0.0799021	0.478147	-0.0180007	0	0	0.244702	0.0790748	-0.383811	0.381101	-0.162133	0	0	-0.170348	-0.019814	0.0942479	-0.157525	-0.20505	-0.174515	0.343272	0.295646	0	0	-0.203498	-0.337346	1.54007	0.428747	0.156928	0	0
0.67	0.541817	1.44765	-2.29131	0.909026	0.300039	1.03333	-0.286675	-0.0747993	-0.0743334	0.511113	-0.0296245	0	0	0.237728	0.0881742	-0.383153	0.383482	-0.176015	0	0	-0.162075	-0.0279204	0.0973453	-0.163831	-0.204448	-0.171027	0.337913	0.288339	0	0	-0.205722	-0.340034	1.55656	0.425845	0.139765	0	0
0.68	0.58279	1.44202	-2.332	0.909431	0.286968	1.03331	-0.281748	-0.0873067	-0.0672007	0.548369	-0.0425704	0	0	0.232646	0.0963509	-0.379629	0.390233	-0.188096	0	0	-0.15394	-0.0373678	0.0976469	-0.16834	-0.202609	-0.168248	0.331191	0.283443	0	0	-0.207986	-0.342259	1.57038	0.4199	0.126463	0	0
0.69	0.629518	1.43678	-2.37599	0.909977	0.274218	1.03362	-0.272376	-0.0991972	-0.0599575	0.5896	-0.0610229	0	0	0.228078	0.104014	-0.371146	0.401092	-0.197667	0	0	-0.145444	-0.0475398	0.0943759	-0.170945	-0.199625	-0.165444	0.323186	0.27782	0	0	-0.211134	-0.344351	1.5708	0.41214	0.118079	0	0
0.7	0.680827	1.43233	-2.42172	0.910728	0.261648	1.03419	-0.258768	-0.110021	-0.0531129	0.633723	-0.0894309	0	0	0.224354	0.111461	-0.360257	0.413963	-0.20176	0	0	-0.136304	-0.0577296	0.0868254	-0.172344	-0.196164	-0.16045	0.314465	0.270389	0	0	-0.213645	-0.346873	1.5708	0.404826	0.109902	0	0
0.71	0.725506	1.42862	-2.45852	0.911654	0.249223	1.03495	-0.242737	-0.118785	-0.0457829	0.679903	-0.121281	0	0	0.220431	0.118035	-0.347749	0.42661	-0.204174	0	0	-0.128496	-0.0665261	0.0773523	-0.174991	-0.193042	-0.152872	0.30838	0.26536	0	0	-0.214187	-0.350645	1.5708	0.399276	0.109114	0	0
0.72	0.764665	1.42627	-2.48902	0.912745	0.237035	1.03575	-0.223459	-0.125595	-0.0368174	0.728649	-0.160414	0	0	0.216658	0.123812	-0.334136	0.437476	-0.206833	0	0	-0.121852	-0.0733574	0.0673133	-0.178455	-0.190825	-0.14286	0.304345	0.259808	0	0	-0.211627	-0.357353	1.5708	0.399452	0.108198	0	0
0.73	0.800834	1.42488	-2.51648	0.913907	0.225139	1.03651	-0.201264	-0.13096	-0.0271189	0.779256	-0.200071	0	0	0.212303	0.12959	-0.321396	0.444716	-0.209347	0	0	-0.116486	-0.078747	0.0575325	-0.182395	-0.189004	-0.134387	0.302739	0.253116	0	0	-0.205549	-0.367254	1.5708	0.405881	0.103802	0	0
0.74	0.838555	1.42432	-2.54614	0.915061	0.213501	1.03716	-0.175581	-0.135201	-0.0173778	0.831658	-0.237118	0	0	0.207492	0.135182	-0.313635	0.44832	-0.211611	0	0	-0.111097	-0.0831294	0.0484253	-0.186632	-0.187706	-0.126763	0.302903	0.246302	0	0	-0.198469	-0.37608	1.5708	0.41059	0.109205	0	0
